#!OML:ASF H:\LiuWeirdWalks\Patient Classification 1\Patient 1\Session 1\male.ASF
:FULLY-SPECIFIED
:DEGREES
364
root -0.539411 17.7969 -28.4223 3.76568 5.65938 7.53185
lowerback 6.10045 -0.170729 8.57908
upperback -0.449128 0.779752 8.87645
thorax -3.94052 0.315349 4.43368
lowerneck -12.5022 -3.07271 7.96945
upperneck 17.9204 -2.14495 -20.0447
head 7.16037 -2.33756 -8.33526
rclavicle -2.82274e-014 -6.67916e-014
rhumerus -29.6051 -27.9545 -10.4469
rradius 30.6102
rwrist 0.378002
rhand -22.4117 -0.776277
rfingers 7.12502
rthumb 4.01124 -30.7183
lclavicle -2.82274e-014 -6.67916e-014
lhumerus -15.8773 16.5777 22.1929
lradius 31.1201
lwrist 5.21101
lhand -19.0546 0.703491
lfingers 7.12502
lthumb 7.25249 30.5592
rfemur -8.97804 -1.78506 10.8702
rtibia 36.5398
rfoot -19.0557 -29.1105
rtoes -2.12927
lfemur -6.4187 0.393015 -20.8076
ltibia 26.7832
lfoot -8.89762 13.6995
ltoes -13.9031
365
root -0.546474 17.7949 -28.4061 3.78994 5.47574 7.5045
lowerback 6.16852 -0.157934 8.73214
upperback -0.587518 0.84027 8.97403
thorax -4.12751 0.338162 4.4525
lowerneck -12.2093 -2.95387 8.34294
upperneck 17.8363 -1.96951 -20.5327
head 7.09171 -2.25485 -8.55133
rclavicle 2.74323e-014 1.27222e-014
rhumerus -29.6249 -27.4688 -10.6899
rradius 30.7152
rwrist 0.258689
rhand -22.2348 -0.68782
rfingers 7.12502
rthumb 4.18203 -30.6265
lclavicle 2.74323e-014 1.27222e-014
lhumerus -16.1164 16.298 22.1913
lradius 31.2205
lwrist 5.55028
lhand -18.8925 0.766919
lfingers 7.12502
lthumb 7.40893 30.6172
rfemur -8.99431 -1.71125 10.9077
rtibia 36.532
rfoot -19.1265 -28.9996
rtoes -2.11391
lfemur -6.42729 0.46794 -20.7783
ltibia 26.892
lfoot -8.95374 13.8721
ltoes -13.7934
366
root -0.553433 17.7928 -28.3901 3.82005 5.28004 7.47987
lowerback 6.22922 -0.135805 8.88764
upperback -0.751112 0.915599 9.05709
thorax -4.33726 0.367002 4.45358
lowerneck -11.8289 -2.82432 8.80405
upperneck 17.7328 -1.7846 -21.0758
head 7.00072 -2.16053 -8.8002
rclavicle 1.11319e-014 3.81667e-014
rhumerus -29.7098 -26.9847 -10.8971
rradius 30.8226
rwrist 0.131735
rhand -22.1233 -0.609972
rfingers 7.12502
rthumb 4.28972 -30.5465
lclavicle 1.11319e-014 3.81667e-014
lhumerus -16.3287 16.0567 22.157
lradius 31.342
lwrist 6.34782
lhand -18.3183 0.650977
lfingers 7.12502
lthumb 7.96309 30.481
rfemur -9.01061 -1.61767 10.942
rtibia 36.5077
rfoot -19.2028 -28.8916
rtoes -2.10323
lfemur -6.45762 0.54534 -20.7552
ltibia 27.0313
lfoot -9.02502 14.0582
ltoes -13.6608
367
root -0.560091 17.7904 -28.3743 3.86292 5.07474 7.47093
lowerback 6.28224 -0.0976558 9.03301
upperback -0.906075 1.00878 9.11973
thorax -4.53358 0.404546 4.43622
lowerneck -11.4792 -2.71841 9.26007
upperneck 17.6359 -1.63561 -21.589
head 6.91354 -2.08164 -9.04362
rclavicle 1.39149e-014 -7.63333e-014
rhumerus -29.8365 -26.5936 -11.09
rradius 30.923
rwrist -0.0378338
rhand -22.1274 -0.569184
rfingers 7.12502
rthumb 4.28571 -30.5058
lclavicle 1.39149e-014 -7.63333e-014
lhumerus -16.4667 15.9159 22.1097
lradius 31.4321
lwrist 7.28232
lhand -17.4986 0.309265
lfingers 7.12502
lthumb 8.75421 30.1077
rfemur -9.03626 -1.51599 10.9568
rtibia 36.4751
rfoot -19.2801 -28.7825
rtoes -2.11147
lfemur -6.51551 0.626539 -20.7539
ltibia 27.1982
lfoot -9.09558 14.2569
ltoes -13.5365
368
root -0.566699 17.788 -28.3594 3.9235 4.86666 7.47234
lowerback 6.32149 -0.0616254 9.15991
upperback -1.0266 1.09146 9.18242
thorax -4.68562 0.438333 4.42921
lowerneck -11.1956 -2.62381 9.63971
upperneck 17.5213 -1.50094 -22.0468
head 6.83454 -2.01188 -9.25703
rclavicle 9.14409e-015 3.18055e-014
rhumerus -29.9108 -26.3417 -11.2981
rradius 30.9875
rwrist -0.14949
rhand -22.2291 -0.546461
rfingers 7.12502
rthumb 4.18752 -30.485
lclavicle 9.14409e-015 3.18055e-014
lhumerus -16.5753 15.9374 22.0402
lradius 31.5361
lwrist 8.52986
lhand -16.4 -0.0817553
lfingers 7.12502
lthumb 9.81428 29.6695
rfemur -9.0832 -1.39731 10.9632
rtibia 36.4415
rfoot -19.3683 -28.6886
rtoes -2.12693
lfemur -6.61514 0.713653 -20.7661
ltibia 27.3933
lfoot -9.1509 14.4619
ltoes -13.428
369
root -0.572627 17.7854 -28.3449 3.99348 4.66967 7.50556
lowerback 6.37492 -0.0297981 9.25194
upperback -1.09105 1.16067 9.24117
thorax -4.78619 0.467855 4.43726
lowerneck -11.0811 -2.57138 9.82653
upperneck 17.434 -1.41664 -22.365
head 6.79363 -1.97664 -9.39554
rclavicle 3.18055e-015 2.22639e-014
rhumerus -29.9138 -26.2535 -11.5358
rradius 31.016
rwrist -0.210261
rhand -22.4078 -0.530151
rfingers 7.12502
rthumb 4.01494 -30.4721
lclavicle 3.18055e-015 2.22639e-014
lhumerus -16.6482 16.0535 21.9988
lradius 31.5066
lwrist 9.07843
lhand -15.7463 -0.678472
lfingers 7.12502
lthumb 10.4449 29.0421
rfemur -9.13532 -1.29663 10.9304
rtibia 36.4091
rfoot -19.4635 -28.5956
rtoes -2.1602
lfemur -6.74566 0.814834 -20.8153
ltibia 27.6217
lfoot -9.1938 14.6525
ltoes -13.3308
370
root -0.577572 17.7825 -28.3308 4.07182 4.48697 7.56708
lowerback 6.44116 -0.00419883 9.31151
upperback -1.10191 1.21412 9.30183
thorax -4.83721 0.492117 4.4656
lowerneck -11.1158 -2.55203 9.83356
upperneck 17.3481 -1.37246 -22.5654
head 6.77969 -1.97074 -9.46525
rclavicle -5.1684e-015 1.27222e-014
rhumerus -29.8375 -26.3113 -11.7993
rradius 31.0061
rwrist -0.196265
rhand -22.6368 -0.529407
rfingers 7.12502
rthumb 3.79381 -30.4754
lclavicle -5.1684e-015 1.27222e-014
lhumerus -16.6843 16.3267 21.9702
lradius 31.4554
lwrist 9.50489
lhand -15.1159 -1.23276
lfingers 7.12502
lthumb 11.0529 28.4562
rfemur -9.19022 -1.22021 10.8608
rtibia 36.3758
rfoot -19.5557 -28.5013
rtoes -2.21367
lfemur -6.9116 0.924514 -20.8992
ltibia 27.8945
lfoot -9.21665 14.8375
ltoes -13.2513
371
root -0.581947 17.7799 -28.3173 4.15655 4.3215 7.63403
lowerback 6.51844 0.0176055 9.37567
upperback -1.11678 1.26513 9.35562
thorax -4.8986 0.514649 4.4844
lowerneck -11.1568 -2.53762 9.81087
upperneck 17.2669 -1.33185 -22.7509
head 6.76869 -1.96769 -9.52474
rclavicle 7.15625e-015 1.20861e-013
rhumerus -29.7677 -26.3626 -12.0657
rradius 30.9766
rwrist -0.0964428
rhand -22.8483 -0.505182
rfingers 7.12502
rthumb 3.58962 -30.4547
lclavicle 7.15625e-015 1.20861e-013
lhumerus -16.7154 16.5416 21.9496
lradius 31.415
lwrist 9.80151
lhand -14.6999 -1.56735
lfingers 7.12502
lthumb 11.4542 28.0998
rfemur -9.24637 -1.15575 10.7843
rtibia 36.3371
rfoot -19.6472 -28.4142
rtoes -2.27401
lfemur -7.12099 1.05421 -20.9881
ltibia 28.2238
lfoot -9.23446 15.0005
ltoes -13.1732
372
root -0.585559 17.7775 -28.3041 4.23215 4.16905 7.6799
lowerback 6.60407 0.0369163 9.47369
upperback -1.12635 1.31653 9.40971
thorax -4.95859 0.536463 4.48472
lowerneck -11.1857 -2.53193 9.76022
upperneck 17.1733 -1.30132 -22.927
head 6.75041 -1.96951 -9.57476
rclavicle -7.55382e-015 2.8625e-014
rhumerus -29.7097 -26.3908 -12.3384
rradius 30.9396
rwrist 0.0519219
rhand -23.0297 -0.475548
rfingers 7.12502
rthumb 3.41441 -30.428
lclavicle -7.55382e-015 2.8625e-014
lhumerus -16.7392 16.7207 21.9375
lradius 31.3777
lwrist 9.94023
lhand -14.4409 -1.77133
lfingers 7.12502
lthumb 11.704 27.8817
rfemur -9.28744 -1.09198 10.7293
rtibia 36.2906
rfoot -19.7188 -28.3353
rtoes -2.35217
lfemur -7.36421 1.20659 -21.053
ltibia 28.6243
lfoot -9.26676 15.1409
ltoes -13.0624
373
root -0.588359 17.7754 -28.2915 4.30119 4.02495 7.70258
lowerback 6.70219 0.0444736 9.60234
upperback -1.16557 1.36182 9.47004
thorax -5.0572 0.553259 4.47657
lowerneck -11.1299 -2.46857 9.87106
upperneck 17.0692 -1.19149 -23.2565
head 6.72335 -1.9294 -9.70484
rclavicle -2.38542e-015 -1.20861e-013
rhumerus -29.6623 -26.2893 -12.6249
rradius 30.9101
rwrist 0.194377
rhand -23.1304 -0.423432
rfingers 7.12502
rthumb 3.3172 -30.3774
lclavicle -2.38542e-015 -1.20861e-013
lhumerus -16.8312 16.7393 21.921
lradius 31.371
lwrist 9.90029
lhand -14.4248 -1.80051
lfingers 7.12502
lthumb 11.7194 27.8517
rfemur -9.3184 -1.02598 10.6971
rtibia 36.2356
rfoot -19.7551 -28.2614
rtoes -2.46481
lfemur -7.65027 1.36972 -21.0942
ltibia 29.1076
lfoot -9.3196 15.2626
ltoes -12.9633
